<svg width="24" height="20" viewBox="0 0 24 20" fill="none" xmlns="http://www.w3.org/2000/svg">
<path d="M19 0H5C2.24 0 0 2.24 0 5V15C0 17.76 2.24 20 5 20H19C21.76 20 24 17.76 24 15V5C24 2.24 21.76 0 19 0ZM5 2H19C20.65 2 22 3.35 22 5H2C2 3.35 3.35 2 5 2ZM19 18H5C3.35 18 2 16.65 2 15V7H22V15C22 16.65 20.65 18 19 18ZM10 10C10 10.55 9.55 11 9 11H8V15C8 15.55 7.55 16 7 16C6.45 16 6 15.55 6 15V11H5C4.45 11 4 10.55 4 10C4 9.45 4.45 9 5 9H9C9.55 9 10 9.45 10 10ZM20 10C20 10.55 19.55 11 19 11H13C12.45 11 12 10.55 12 10C12 9.45 12.45 9 13 9H19C19.55 9 20 9.45 20 10ZM20 14C20 14.55 19.55 15 19 15H13C12.45 15 12 14.55 12 14C12 13.45 12.45 13 13 13H19C19.55 13 20 13.45 20 14Z" fill="#6E7C99"/>
</svg>
