<svg width="24" height="24" viewBox="0 0 24 24" fill="none" xmlns="http://www.w3.org/2000/svg">
<path d="M23.786 19.492L16.713 1.83602C16.089 0.307016 14.337 -0.432984 12.802 0.191016L11.877 0.569016C11.628 0.671016 11.405 0.813016 11.197 0.971016C10.649 0.377016 9.871 -0.000984438 9.001 -0.000984438H3C1.346 1.55623e-05 0 1.34602 0 3.00002V21C0 22.654 1.346 24 3 24H9C10.654 24 12 22.654 12 21V8.89502L17.304 22.137C17.929 23.68 19.721 24.397 21.213 23.778L22.139 23.4C23.644 22.826 24.425 20.965 23.786 19.492ZM13.574 7.44602L16.352 6.31402L20.523 16.726L17.745 17.858L13.574 7.44602ZM12.632 2.42102L13.557 2.04302C14.053 1.83702 14.654 2.07402 14.859 2.58602L15.609 4.45702L12.832 5.58902L12.085 3.72302C11.877 3.21302 12.123 2.62802 12.634 2.42002L12.632 2.42102ZM2 7.00002H5V17H2V7.00002ZM7 7.00002H10V17H7V7.00002ZM10 3.00002V5.00002H7V2.00002H9C9.551 2.00002 10 2.44802 10 3.00002ZM3 2.00002H5V5.00002H2V3.00002C2 2.44802 2.449 2.00002 3 2.00002ZM2 21V19H5V22H3C2.449 22 2 21.552 2 21ZM9 22H7V19H10V21C10 21.552 9.551 22 9 22ZM21.929 21.009C21.825 21.256 21.632 21.447 21.385 21.548L20.459 21.926C19.948 22.132 19.364 21.889 19.159 21.386L18.49 19.715L21.268 18.583L21.933 20.244C22.035 20.491 22.034 20.764 21.93 21.01L21.929 21.009Z" fill="#CC7300"/>
</svg>
