<svg width="24" height="24" viewBox="0 0 24 24" fill="none" xmlns="http://www.w3.org/2000/svg">
<path d="M20 14.494H21.5C21.71 14.494 21.898 14.625 21.97 14.823C22.042 15.021 21.983 15.242 21.822 15.377L20.639 16.341L21.128 17.831C21.195 18.033 21.128 18.255 20.959 18.384C20.79 18.513 20.559 18.522 20.381 18.407L19.004 17.51L17.65 18.416C17.566 18.472 17.469 18.5 17.372 18.5C17.266 18.5 17.161 18.467 17.072 18.4C16.902 18.273 16.831 18.052 16.895 17.85L17.365 16.342L16.176 15.375C16.016 15.239 15.958 15.018 16.03 14.822C16.102 14.625 16.29 14.494 16.499 14.494H17.999L18.53 13.004C18.603 12.808 18.79 12.679 18.999 12.679C19.208 12.679 19.395 12.809 19.468 13.004L20 14.494ZM15.5 14.494H14L13.469 13.004C13.396 12.808 13.209 12.679 13 12.679C12.791 12.679 12.604 12.809 12.531 13.004L12 14.494H10.5C10.29 14.494 10.103 14.625 10.031 14.822C9.958 15.019 10.017 15.24 10.177 15.375L11.366 16.342L10.896 17.85C10.833 18.052 10.903 18.273 11.073 18.4C11.162 18.466 11.267 18.5 11.373 18.5C11.47 18.5 11.567 18.472 11.651 18.416L13.005 17.51L14.382 18.407C14.56 18.522 14.791 18.513 14.96 18.384C15.128 18.254 15.196 18.032 15.129 17.831L14.64 16.341L15.823 15.377C15.984 15.242 16.043 15.02 15.971 14.823C15.899 14.626 15.711 14.494 15.501 14.494H15.5ZM9.5 14.494H8L7.469 13.004C7.396 12.808 7.209 12.679 7 12.679C6.791 12.679 6.604 12.809 6.531 13.004L6 14.494H4.5C4.29 14.494 4.103 14.625 4.031 14.822C3.958 15.019 4.017 15.24 4.177 15.375L5.366 16.342L4.896 17.85C4.833 18.052 4.903 18.273 5.073 18.4C5.162 18.466 5.267 18.5 5.373 18.5C5.47 18.5 5.567 18.472 5.651 18.416L7.005 17.51L8.382 18.407C8.56 18.522 8.791 18.513 8.96 18.384C9.128 18.254 9.196 18.032 9.129 17.831L8.64 16.341L9.823 15.377C9.984 15.242 10.043 15.02 9.971 14.823C9.899 14.626 9.711 14.494 9.501 14.494H9.5ZM24 13V18C24 20.206 22.206 22 20 22H16.138L14.301 23.519C13.94 23.841 13.477 24.003 13.009 24.003C12.533 24.003 12.054 23.835 11.672 23.496L9.897 22.001H6.001C3.795 22.001 2.001 20.207 2.001 18.001V13.001C2.001 10.795 3.795 9.001 6.001 9.001H20.001C22.207 9.001 24.001 10.795 24.001 13.001L24 13ZM22 13C22 11.897 21.103 11 20 11H6C4.897 11 4 11.897 4 13V18C4 19.103 4.897 20 6 20H10.262C10.497 20 10.726 20.083 10.907 20.235L12.981 21.983L15.142 20.229C15.321 20.081 15.546 20 15.779 20H20.001C21.104 20 22.001 19.103 22.001 18L22 13ZM2 4C2 2.897 2.897 2 4 2H18C19.103 2 20 2.897 20 4V6C20 6.552 20.447 7 21 7C21.553 7 22 6.552 22 6V4C22 1.794 20.206 0 18 0H4C1.794 0 0 1.794 0 4V8C0 8.552 0.447 9 1 9C1.553 9 2 8.552 2 8V4ZM5 5C4.447 5 4 5.448 4 6C4 6.552 4.447 7 5 7H11C11.553 7 12 6.552 12 6C12 5.448 11.553 5 11 5H5ZM15 5C14.447 5 14 5.448 14 6C14 6.552 14.447 7 15 7H17C17.553 7 18 6.552 18 6C18 5.448 17.553 5 17 5H15Z" fill="#CC7300"/>
</svg>
