<svg width="24" height="24" viewBox="0 0 24 24" fill="none" xmlns="http://www.w3.org/2000/svg">
<path d="M2 2.5C2 1.119 3.119 0 4.5 0C5.881 0 7 1.119 7 2.5C7 3.881 5.881 5 4.5 5C3.119 5 2 3.881 2 2.5ZM7 10C6.447 10 6 10.448 6 11V15H4C2.897 15 2 14.103 2 13V10C2 8.897 2.897 8 4 8H14C14.553 8 15 7.552 15 7C15 6.448 14.553 6 14 6H4C1.794 6 0 7.794 0 10V13C0 14.474 0.81 15.75 2 16.444V23C2 23.553 2.447 24 3 24C3.553 24 4 23.553 4 23V17H6V23C6 23.553 6.447 24 7 24C7.553 24 8 23.553 8 23V11C8 10.448 7.553 10 7 10ZM19.5 0H10C9.447 0 9 0.448 9 1C9 1.552 9.447 2 10 2H19.5C20.879 2 22 3.122 22 4.5V10.5C22 11.878 20.879 13 19.5 13H19V12C19 11.448 18.553 11 18 11H16C15.447 11 15 11.448 15 12V13H11C10.447 13 10 13.447 10 14C10 14.553 10.447 15 11 15H19.5C21.981 15 24 12.981 24 10.5V4.5C24 2.019 21.981 0 19.5 0Z" fill="#CC7300"/>
</svg>
