<svg width="24" height="20" viewBox="0 0 24 20" fill="none" xmlns="http://www.w3.org/2000/svg">
<g opacity="0.6" clip-path="url(#clip0_706_8563)">
<path fill-rule="evenodd" clip-rule="evenodd" d="M23.4495 3.01571C23.6155 2.43071 23.4495 2 22.6545 2H20.0296C19.3616 2 19.0536 2.37179 18.8866 2.78214C18.8866 2.78214 17.5516 6.20643 15.6607 8.43071C15.0487 9.07571 14.7707 9.28036 14.4367 9.28036C14.2697 9.28036 14.0187 9.07571 14.0187 8.48964V3.01571C14.0187 2.31286 13.8347 2 13.2787 2H9.15079C8.73385 2 8.48284 2.32571 8.48284 2.63536C8.48284 3.30071 9.42877 3.455 9.52577 5.32786V9.39714C9.52577 10.2896 9.37283 10.4514 9.03881 10.4514C8.14883 10.4514 5.98388 7.01107 4.6989 3.07464C4.44991 2.30857 4.19791 2 3.52692 2H0.899983C0.149997 2 0 2.37179 0 2.78214C0 3.51286 0.889978 7.14286 4.14492 11.9439C6.31487 15.2225 9.36977 17 12.1528 17C13.8217 17 14.0277 16.6057 14.0277 15.9254V13.4471C14.0277 12.6575 14.1857 12.5 14.7147 12.5C15.1047 12.5 15.7716 12.7057 17.3297 14.2861C19.1096 16.16 19.4026 17 20.4046 17H23.0295C23.7795 17 24.1555 16.6057 23.9395 15.8257C23.7015 15.05 22.8516 13.9239 21.7246 12.5879C21.1126 11.8271 20.1946 11.0075 19.9156 10.5971C19.5266 10.0711 19.6376 9.83643 19.9156 9.36821C19.9156 9.36821 23.1155 4.62607 23.4485 3.01571H23.4495Z" fill="#8495B8"/>
</g>
<defs>
<clipPath id="clip0_706_8563">
<rect width="24" height="20" fill="white"/>
</clipPath>
</defs>
</svg>
