<svg width="681" height="422" viewBox="0 0 681 422" fill="none" xmlns="http://www.w3.org/2000/svg">
<path d="M55.9219 94.1508L101.082 30.8049L100.948 42.5278M55.9219 94.1508V129.484V140.497L92.5366 110.272L99.8852 104.206M55.9219 94.1508L60.375 95.1341M87.0938 101.034L93.7864 102.639M87.0938 101.034L100.948 87.7266M87.0938 101.034L84.1251 100.378L81.1563 99.7228M93.7864 102.639L100.948 94.9422M93.7864 102.639L99.8852 104.206M100.948 94.9422L101.082 103.288L99.8852 104.206M100.948 94.9422V87.7266M100.948 87.7266V79.9258M100.948 79.9258L81.1563 99.7228M100.948 79.9258V71.6661M81.1563 99.7228L75.7136 98.521M100.948 71.6661L75.7136 98.521M100.948 71.6661V62.9476M75.7136 98.521L69.2813 97.1007M69.2813 97.1007L100.948 62.9476M69.2813 97.1007L64.8282 96.1174M100.948 62.9476V53.3113M100.948 53.3113L64.8282 96.1174M100.948 53.3113V42.5278M64.8282 96.1174L60.375 95.1341M60.375 95.1341L100.948 42.5278M507.667 129.943L347.354 57.9V65.0125M507.667 129.943V161.146M507.667 129.943L500.987 130.94M464.62 136.367V149.215M464.62 136.367L347.354 93.9538M464.62 136.367L470.805 135.444M464.62 149.215L507.667 161.146M464.62 149.215L458.682 147.589M347.354 93.9538V105.623M347.354 93.9538V88.0623M507.667 161.146V177.665L347.354 149.215V117.094M347.354 117.094V105.623M347.354 117.094L360.219 120.618M458.682 147.589V139.579L445.57 135.58M458.682 147.589L445.57 143.997M347.354 105.623L360.219 109.546M360.219 109.546V120.618M360.219 109.546L376.052 114.376M360.219 120.618L376.052 124.955M376.052 124.955V114.376M376.052 124.955L392.875 129.563M376.052 114.376L392.875 119.507M392.875 119.507V129.563M392.875 119.507L405.74 123.431M392.875 129.563L405.74 133.087M405.74 123.431V133.087M405.74 123.431L419.099 127.506M405.74 133.087L419.099 136.746M419.099 127.506V136.746M419.099 127.506L432.459 131.58M419.099 136.746L432.459 140.406M432.459 131.58V140.406M432.459 131.58L445.57 135.58M432.459 140.406L445.57 143.997M445.57 135.58V143.997M347.354 82.1709V76.7811M347.354 82.1709L479.42 134.158M347.354 82.1709V88.0623M347.354 76.7811L486.598 133.087M347.354 76.7811V70.8158M486.598 133.087L494.308 131.936M486.598 133.087L479.42 134.158M494.308 131.936L347.354 70.8158M494.308 131.936L500.987 130.94M347.354 70.8158V65.0125M347.354 65.0125L500.987 130.94M435.427 222.176V210.704M512.615 182.713L435.427 186.384V210.704M512.615 182.713V123.977L331.026 36.7919M512.615 182.713L331.026 154.722M108.865 230.435L190.505 228.141M108.865 230.435V186.384M108.865 230.435L52.4584 222.176M108.865 230.435V233.189H112.823M108.865 230.435L37.6147 232.271M190.505 228.141V104.705L202.875 98.746M190.505 228.141L202.875 228.913M241.964 169.406V231.353M241.964 169.406L435.427 186.843M241.964 169.406L251.117 167.888M241.964 169.406V79.9161M241.964 231.353L330.531 238.695M241.964 231.353L228.604 230.519M241.964 231.353L260.271 230.594M349.828 240.072L464.62 230.435V220.799L427.51 222.577M349.828 240.072V226.299M349.828 240.072L330.531 238.695M349.828 226.299L364.177 225.611M349.828 226.299H347.849M330.531 238.695V227.682M330.531 227.682V226.299M330.531 227.682L309.255 228.564M330.531 226.299H347.849M330.531 226.299V189.973M325.583 39.6343L330.531 37.2508V154.722L325.583 155.542M325.583 39.6343V155.542M325.583 39.6343L319.646 42.4946M325.583 155.542L319.646 156.526M319.646 156.526V42.4946M319.646 156.526L314.203 157.429M319.646 42.4946L314.203 45.1165M314.203 45.1165V157.429M314.203 45.1165L309.255 47.5M314.203 157.429L309.255 158.249M309.255 158.249V47.5M309.255 158.249L303.86 159.144M309.255 47.5L303.86 50.0992M303.86 50.0992V159.144M303.86 50.0992L298.37 52.7438M303.86 159.144L298.37 160.054M298.37 160.054V52.7438M298.37 160.054L292.927 160.956M298.37 52.7438L292.927 55.3657M292.927 55.3657V160.956M292.927 55.3657L286.495 58.4643M292.927 160.956L286.495 162.023M286.495 162.023V58.4643M286.495 162.023L280.046 163.092M286.495 58.4643L280.046 61.571M280.046 61.571V163.092M280.046 61.571L274.125 64.4231M280.046 163.092L274.125 164.074M274.125 164.074V64.4231M274.125 164.074L268.135 165.067L267.198 165.222M274.125 64.4231L268.135 67.3088L267.198 67.7601M267.198 67.7601L260.271 71.097L259.586 71.427M267.198 67.7601V165.222M267.198 165.222L260.271 166.37L259.586 166.484M251.117 167.888V75.5065M251.117 167.888L259.586 166.484M251.117 75.5065L241.964 79.9161M251.117 75.5065L259.586 71.427M241.964 79.9161L228.604 86.3516M228.604 86.3516V230.519M228.604 86.3516L215.245 92.7872M228.604 230.519L215.245 229.685M215.245 229.685V92.7872M215.245 229.685L202.875 228.913M215.245 92.7872L202.875 98.746M202.875 98.746V228.913M260.271 230.594V185.925L284.763 187.336M260.271 230.594L284.763 229.579M427.51 222.577V195.561L420.089 195.134M427.51 222.577L420.089 222.933M420.089 222.933V195.134M420.089 222.933L412.667 223.288M420.089 195.134L412.667 194.706M412.667 194.706V223.288M412.667 194.706L402.771 194.136M412.667 223.288L402.771 223.762M402.771 223.762V194.136M402.771 223.762L391.886 224.284M402.771 194.136L391.886 193.509M391.886 193.509V224.284M391.886 193.509L378.526 192.739M391.886 224.284L378.526 224.924M378.526 224.924V192.739M378.526 224.924L364.177 225.611M378.526 192.739L364.177 191.912M364.177 191.912V225.611M364.177 191.912L347.849 190.971M347.849 226.299V190.971M347.849 190.971L330.531 189.973M330.531 189.973L309.255 188.747M309.255 188.747V228.564M309.255 188.747L284.763 187.336M309.255 228.564L284.763 229.579M284.763 229.579V187.336M435.427 210.704H681M68.2917 156.098H74.724M74.724 156.098V168.488M74.724 156.098L113.318 135.908M113.318 135.908V156.098M113.318 135.908L167.745 142.791M167.745 142.791L175.167 140.956M167.745 142.791V160.228M108.865 1L129.151 7.88306V17.9782M108.865 1V131.319M108.865 1L52.4584 87.7266V173.535M147.459 14.7661L155.375 17.9782V26.2379M147.459 14.7661V24.4024M147.459 14.7661L140.531 21.9716M171.209 23.9436L277.589 62.0298M171.209 23.9436V31.7444M171.209 23.9436L165.271 29.6794M52.4584 173.535L108.865 177.665M52.4584 173.535L26.2344 172.618M108.865 177.665V155.64M108.865 177.665V186.384M26.2344 172.618L25.2448 240.531M26.2344 172.618L1 190.055V210.704V226.764L25.2448 240.531M25.2448 240.531H37.6147M37.6147 240.531V235.024M37.6147 240.531H39.099L411 421M108.865 186.384L106.886 186.282M52.4584 222.176H37.6147M52.4584 222.176V210.704M129.151 17.9782V100.575L147.459 104.246V24.4024M129.151 17.9782L140.531 21.9716M147.459 24.4024L140.531 21.9716M155.375 26.2379V105.623L171.209 108.835V31.7444M155.375 26.2379L165.271 29.6794M171.209 31.7444L165.271 29.6794M106.886 186.282L52.4584 196.938M106.886 186.282L92.5366 185.543M52.4584 196.938H47.0156M52.4584 196.938V210.704M92.5366 185.543L47.0156 196.938M92.5366 185.543L80.6615 184.931M47.0156 196.938H37.6147M37.6147 196.938L80.6615 184.931M37.6147 196.938V194.185M37.6147 196.938V210.704M80.6615 184.931L67.3023 184.242M67.3023 184.242L37.6147 194.185M67.3023 184.242L59.3855 183.835M37.6147 194.185V191.431M37.6147 191.431L59.3855 183.835M37.6147 191.431V189.137M59.3855 183.835L52.4584 183.478M52.4584 183.478L37.6147 189.137M52.4584 183.478L46.2832 183.159M37.6147 189.137V185.925M37.6147 185.925V182.713L46.2832 183.159M37.6147 185.925L46.2832 183.159M37.6147 222.176V210.704M37.6147 222.176V232.271M52.4584 210.704H37.6147M112.823 233.189V235.942M112.823 233.189L39.5938 235.942M112.823 235.942H117.771V238.236L42.5626 241.907V239.154M112.823 235.942L42.5626 239.154M42.5626 239.154L39.5938 238.236V235.942M39.5938 235.942L37.6147 235.024M37.6147 235.024V232.271M200.896 307.526L335.479 281.37M172.693 295.136L300.349 274.487M151.912 286.877L275.61 269.898M137.563 280.452L255.323 266.227M124.203 274.487L237.511 262.556M111.339 269.44L219.203 258.885M102.432 265.31L205.844 256.132M95.0106 262.098L188.726 253.677M88.0834 258.885L172.331 251.611M82.6407 256.132L145.477 250.404M75.7136 252.92L112.153 249.75M118.266 238.236L411 287M114.802 230.894L411 275M3.96881 224.011L21.7813 231.353V223.094M3.96881 224.011V195.561M3.96881 224.011H8.9167V223.094M3.96881 195.561L21.7813 184.548V187.531M3.96881 195.561H7.92709M8.9167 196.479V195.561H7.92709M8.9167 196.479V210.704M8.9167 196.479H9.9063M21.7813 196.479V210.704M21.7813 196.479H15.349M21.7813 196.479V192.808M21.7813 210.704H8.9167M21.7813 210.704V223.094M8.9167 210.704V223.094M21.7813 223.094H8.9167M15.349 196.479L21.7813 192.808M15.349 196.479H9.9063M21.7813 192.808V190.514M21.7813 190.514L9.9063 196.479M21.7813 190.514V187.531M21.7813 187.531L7.92709 195.561M479.42 134.158L476.99 134.521L470.805 135.444M470.805 135.444L347.354 88.0623M259.586 71.427V166.484M67.3023 172.159L109.36 155.64L175.662 161.605V140.497L109.36 131.319L67.3023 155.64V172.159Z" stroke="#C5D2EB"/>
</svg>
