<svg width="180" height="44" viewBox="0 0 180 44" fill="none" xmlns="http://www.w3.org/2000/svg">
<path d="M74.8855 5.33333H77.1756V15.3333L86.7939 5.33333H89.542L82.5573 12.5504L90.687 23.1111H87.9389L81.2139 13.9384L77.1756 18.2222V23.1111H74.8855V5.33333Z" fill="#1C1D1F"/>
<path d="M158.931 5.33333H161.221L150.916 23.1111H148.626L151.718 17.7778L143.817 5.33333H146.107L152.812 15.8889L158.931 5.33333Z" fill="#1C1D1F"/>
<path d="M0 5.33333V44H2.29008V7.55556H14.1985V23.1111H16.4886V5.33333H0Z" fill="#1C1D1F"/>
<path d="M106.031 5.33333V7.55556H99.3893V23.1111H97.0992V7.55556H90.458V5.33333H106.031Z" fill="#1C1D1F"/>
<path d="M58.626 5.33333V23.1111H71.4504V20.8889H60.916V15.1111H70.3053V12.8889H60.916V7.55556H71.4504V5.33333H58.626Z" fill="#1C1D1F"/>
<path fill-rule="evenodd" clip-rule="evenodd" d="M171.298 26.2222H169.008V28.8889H166.947C163.532 28.8889 160.763 31.5752 160.763 34.8889C160.763 38.2026 163.532 40.8889 166.947 40.8889H169.008V44H171.298V40.8889H173.817C177.232 40.8889 180 38.2026 180 34.8889C180 31.5752 177.232 28.8889 173.817 28.8889H171.298V26.2222ZM163.053 34.8889C163.053 32.8025 164.796 31.1111 166.947 31.1111H169.008V38.6667H166.947C164.796 38.6667 163.053 36.9753 163.053 34.8889ZM173.817 38.6667C175.967 38.6667 177.71 36.9753 177.71 34.8889C177.71 32.8025 175.967 31.1111 173.817 31.1111H171.298V38.6667H173.817Z" fill="#1C1D1F"/>
<path fill-rule="evenodd" clip-rule="evenodd" d="M45.8015 20.8889C49.5958 20.8889 52.6718 17.9041 52.6718 14.2222C52.6718 10.5403 49.5958 7.55556 45.8015 7.55556C42.0072 7.55556 38.9313 10.5403 38.9313 14.2222C38.9313 17.9041 42.0072 20.8889 45.8015 20.8889ZM45.8015 23.1111C50.8606 23.1111 54.9618 19.1314 54.9618 14.2222C54.9618 9.31302 50.8606 5.33333 45.8015 5.33333C40.7424 5.33333 36.6412 9.31302 36.6412 14.2222C36.6412 19.1314 40.7424 23.1111 45.8015 23.1111Z" fill="#1C1D1F"/>
<path fill-rule="evenodd" clip-rule="evenodd" d="M129.16 5.33333V44H131.45V16.4444H137.634C140.796 16.4444 143.359 13.9571 143.359 10.8889C143.359 7.82064 140.796 5.33333 137.634 5.33333H129.16ZM141.069 10.8889C141.069 12.7298 139.531 14.2222 137.634 14.2222H131.45V7.55556H137.634C139.531 7.55556 141.069 9.04794 141.069 10.8889Z" fill="#1C1D1F"/>
<path fill-rule="evenodd" clip-rule="evenodd" d="M20.1527 5.33333V23.1111H22.4427V16.4444H28.626C31.7879 16.4444 34.3511 13.9571 34.3511 10.8889C34.3511 7.82064 31.7879 5.33333 28.626 5.33333H20.1527ZM32.0611 10.8889C32.0611 12.7298 30.5231 14.2222 28.626 14.2222H22.4427V7.55556H28.626C30.5231 7.55556 32.0611 9.04794 32.0611 10.8889Z" fill="#1C1D1F"/>
<path fill-rule="evenodd" clip-rule="evenodd" d="M144.733 26.2222V40H147.023V37.3333H153.206C156.368 37.3333 158.931 34.846 158.931 31.7778C158.931 28.7095 156.368 26.2222 153.206 26.2222H144.733ZM156.641 31.7778C156.641 33.6187 155.103 35.1111 153.206 35.1111H147.023V28.4444H153.206C155.103 28.4444 156.641 29.9368 156.641 31.7778Z" fill="#1C1D1F"/>
<path d="M123.206 8.88889L110.84 23.1111H108.55V5.33333H110.84V19.7778L123.206 5.33333H125.496V23.1111H123.206V8.88889Z" fill="#1C1D1F"/>
<path d="M177.71 8.88889L165.344 23.1111H163.053V5.33333H165.344V19.7778L177.71 5.33333H180V23.1111H177.71V8.88889Z" fill="#1C1D1F"/>
<path d="M169.277 0.866554C169.573 1.15545 169.923 1.38461 170.309 1.54096C170.695 1.69731 171.109 1.77778 171.527 1.77778C171.944 1.77778 172.358 1.69731 172.744 1.54096C173.13 1.38461 173.481 1.15545 173.776 0.866555C174.034 0.614523 174.245 0.321338 174.401 0H176.336C176.283 0.182297 176.219 0.3618 176.145 0.537563C175.894 1.13071 175.525 1.66966 175.061 2.12363C174.597 2.57761 174.046 2.93772 173.44 3.18341C172.833 3.4291 172.183 3.55556 171.527 3.55556C170.87 3.55556 170.22 3.4291 169.614 3.18341C169.007 2.93772 168.456 2.57761 167.992 2.12363C167.528 1.66966 167.16 1.13071 166.909 0.537563C166.834 0.3618 166.77 0.182297 166.718 0H168.653C168.809 0.321338 169.02 0.614523 169.277 0.866554Z" fill="#1C1D1F"/>
<path d="M147.02 41.7778H144.73V44H147.02V41.7778Z" fill="#1C1D1F"/>
</svg>
