<svg width="504" height="100" viewBox="0 0 504 100" fill="none" xmlns="http://www.w3.org/2000/svg">
<path d="M17.3011 64L0 0L64 17.5882L20.8622 20.6999L17.3011 64Z" fill="#F79E2A"/>
<path d="M265.74 12.1212H270.931V34.8485L292.733 12.1212H298.962L283.13 28.5237L301.557 52.5252H295.328L280.085 31.6782L270.931 41.4141V52.5252H265.74V12.1212Z" fill="white"/>
<path d="M456.244 12.1212H461.435L438.076 52.5252H432.885L439.893 40.404L421.985 12.1212H427.176L442.375 36.1111L456.244 12.1212Z" fill="white"/>
<path d="M96 12.1212V100H101.191V17.1717H128.183V52.5252H133.374V12.1212H96Z" fill="white"/>
<path d="M336.336 12.1212V17.1717H321.282V52.5252H316.092V17.1717H301.038V12.1212H336.336Z" fill="white"/>
<path d="M228.885 12.1212V52.5252H257.954V47.4747H234.076V34.3434H255.359V29.2929H234.076V17.1717H257.954V12.1212H228.885Z" fill="white"/>
<path fill-rule="evenodd" clip-rule="evenodd" d="M484.275 59.596H479.084V65.6566H474.412C466.672 65.6566 460.397 71.7618 460.397 79.2929C460.397 86.8241 466.672 92.9293 474.412 92.9293H479.084V100H484.275V92.9293H489.985C497.725 92.9293 504 86.8241 504 79.2929C504 71.7618 497.725 65.6566 489.985 65.6566H484.275V59.596ZM465.588 79.2929C465.588 74.5511 469.539 70.7071 474.412 70.7071H479.084V87.8788H474.412C469.539 87.8788 465.588 84.0348 465.588 79.2929ZM489.985 87.8788C494.858 87.8788 498.809 84.0348 498.809 79.2929C498.809 74.5511 494.858 70.7071 489.985 70.7071H484.275V87.8788H489.985Z" fill="white"/>
<path fill-rule="evenodd" clip-rule="evenodd" d="M199.817 47.4747C208.417 47.4747 215.389 40.6912 215.389 32.3232C215.389 23.9553 208.417 17.1717 199.817 17.1717C191.216 17.1717 184.244 23.9553 184.244 32.3232C184.244 40.6912 191.216 47.4747 199.817 47.4747ZM199.817 52.5252C211.284 52.5252 220.58 43.4805 220.58 32.3232C220.58 21.166 211.284 12.1212 199.817 12.1212C188.35 12.1212 179.053 21.166 179.053 32.3232C179.053 43.4805 188.35 52.5252 199.817 52.5252Z" fill="white"/>
<path fill-rule="evenodd" clip-rule="evenodd" d="M388.763 12.1212V100H393.954V37.3737H407.969C415.137 37.3737 420.947 31.7208 420.947 24.7475C420.947 17.7742 415.137 12.1212 407.969 12.1212H388.763ZM415.756 24.7475C415.756 28.9314 412.27 32.3232 407.969 32.3232H393.954V17.1717H407.969C412.27 17.1717 415.756 20.5635 415.756 24.7475Z" fill="white"/>
<path fill-rule="evenodd" clip-rule="evenodd" d="M141.679 12.1212V52.5252H146.87V37.3737H160.885C168.053 37.3737 173.863 31.7208 173.863 24.7475C173.863 17.7742 168.053 12.1212 160.885 12.1212H141.679ZM168.672 24.7475C168.672 28.9314 165.186 32.3232 160.885 32.3232H146.87V17.1717H160.885C165.186 17.1717 168.672 20.5635 168.672 24.7475Z" fill="white"/>
<path fill-rule="evenodd" clip-rule="evenodd" d="M424.061 59.596V90.9091H429.252V84.8485H443.267C450.434 84.8485 456.244 79.1955 456.244 72.2222C456.244 65.2489 450.434 59.596 443.267 59.596H424.061ZM451.053 72.2222C451.053 76.4062 447.567 79.798 443.267 79.798H429.252V64.6465H443.267C447.567 64.6465 451.053 68.0382 451.053 72.2222Z" fill="white"/>
<path d="M375.267 20.202L347.237 52.5252H342.046V12.1212H347.237V44.9495L375.267 12.1212H380.458V52.5252H375.267V20.202Z" fill="white"/>
<path d="M498.809 20.202L470.779 52.5252H465.588V12.1212H470.779V44.9495L498.809 12.1212H504V52.5252H498.809V20.202Z" fill="white"/>
<path d="M479.696 1.96944C480.365 2.62602 481.16 3.14684 482.035 3.50218C482.909 3.85751 483.847 4.0404 484.794 4.0404C485.741 4.0404 486.678 3.85752 487.553 3.50218C488.428 3.14684 489.223 2.62602 489.892 1.96944C490.476 1.39664 490.955 0.730313 491.308 0H495.695C495.575 0.414312 495.43 0.822273 495.262 1.22173C494.692 2.5698 493.858 3.79468 492.806 4.82644C491.753 5.8582 490.504 6.67664 489.13 7.23503C487.755 7.79341 486.282 8.08081 484.794 8.08081C483.306 8.08081 481.833 7.79341 480.458 7.23502C479.083 6.67664 477.834 5.8582 476.782 4.82644C475.73 3.79468 474.895 2.5698 474.326 1.22173C474.157 0.822272 474.013 0.414312 473.893 0H478.279C478.633 0.730313 479.111 1.39664 479.696 1.96944Z" fill="white"/>
<path d="M429.245 94.9495H424.054V100H429.245V94.9495Z" fill="white"/>
</svg>
