<svg width="32" height="32" viewBox="0 0 32 32" fill="none" xmlns="http://www.w3.org/2000/svg">
<path d="M27.3253 10.624L14.6053 1.29067C13.6119 0.563179 12.4363 0.125058 11.209 0.0248833C9.98174 -0.0752914 8.7507 0.166395 7.65239 0.723142C6.55409 1.27989 5.63144 2.12994 4.98674 3.17905C4.34205 4.22815 4.00051 5.43531 4 6.66667V25.3333C4.00022 26.5652 4.34178 27.773 4.98677 28.8226C5.63176 29.8722 6.55495 30.7225 7.65389 31.2792C8.75284 31.8359 9.98455 32.0773 11.2123 31.9764C12.4401 31.8756 13.6159 31.4366 14.6093 30.708L27.3293 21.3747C28.1737 20.7555 28.8603 19.9461 29.3336 19.0121C29.8069 18.0781 30.0535 17.0457 30.0535 15.9987C30.0535 14.9516 29.8069 13.9193 29.3336 12.9853C28.8603 12.0513 28.1737 11.2419 27.3293 10.6227L27.3253 10.624Z" fill="white"/>
</svg>
