<svg width="32" height="32" viewBox="0 0 32 32" fill="none" xmlns="http://www.w3.org/2000/svg">
<path d="M27.3253 10.6241L14.6053 1.29081C13.6119 0.563326 12.4363 0.125205 11.209 0.0250302C9.98174 -0.0751445 8.7507 0.166541 7.65239 0.723289C6.55409 1.28004 5.63144 2.13009 4.98674 3.17919C4.34205 4.2283 4.00051 5.43545 4 6.66681V25.3335C4.00022 26.5654 4.34178 27.7732 4.98677 28.8227C5.63176 29.8723 6.55495 30.7226 7.65389 31.2794C8.75284 31.8361 9.98455 32.0774 11.2123 31.9766C12.4401 31.8758 13.6159 31.4367 14.6093 30.7081L27.3293 21.3748C28.1737 20.7556 28.8603 19.9462 29.3336 19.0122C29.8069 18.0782 30.0535 17.0459 30.0535 15.9988C30.0535 14.9517 29.8069 13.9194 29.3336 12.9854C28.8603 12.0514 28.1737 11.242 27.3293 10.6228L27.3253 10.6241ZM25.7467 19.2241L13.0267 28.5575C12.4307 28.993 11.7258 29.2551 10.9901 29.3148C10.2544 29.3745 9.51647 29.2294 8.85809 28.8957C8.19971 28.5619 7.64651 28.0525 7.25974 27.4238C6.87297 26.7951 6.6677 26.0716 6.66667 25.3335V6.66681C6.65927 5.92728 6.86066 5.20066 7.2477 4.57044C7.63475 3.94023 8.19173 3.432 8.85467 3.10415C9.41852 2.81733 10.0421 2.6675 10.6747 2.66681C11.5225 2.67005 12.347 2.94533 13.0267 3.45215L25.7467 12.7855C26.2527 13.1571 26.6641 13.6426 26.9477 14.2026C27.2312 14.7627 27.379 15.3817 27.379 16.0095C27.379 16.6373 27.2312 17.2562 26.9477 17.8163C26.6641 18.3764 26.2527 18.8619 25.7467 19.2335V19.2241Z" fill="white"/>
<path d="M25.7467 19.2241L13.0267 28.5575C12.4307 28.993 11.7258 29.2551 10.9901 29.3148C10.2544 29.3745 9.51647 29.2294 8.85809 28.8957C8.19971 28.5619 7.64651 28.0525 7.25974 27.4238C6.87297 26.7951 6.6677 26.0716 6.66667 25.3335V6.66681C6.65927 5.92728 6.86066 5.20066 7.2477 4.57044C7.63475 3.94023 8.19173 3.432 8.85467 3.10415C9.41852 2.81733 10.0421 2.6675 10.6747 2.66681C11.5225 2.67005 12.347 2.94533 13.0267 3.45215L25.7467 12.7855C26.2527 13.1571 26.6641 13.6426 26.9477 14.2026C27.2312 14.7627 27.379 15.3817 27.379 16.0095C27.379 16.6373 27.2312 17.2562 26.9477 17.8163C26.6641 18.3764 26.2527 18.8619 25.7467 19.2335V19.2241Z" fill="white"/>
</svg>
