<svg width="64" height="64" viewBox="0 0 64 64" fill="none" xmlns="http://www.w3.org/2000/svg">
<g clip-path="url(#clip0_566_483)">
<path d="M21.3333 10.6665H10.6667C7.83769 10.6665 5.12458 11.7903 3.12419 13.7907C1.12381 15.7911 0 18.5042 0 21.3332L0 31.9998C0 33.4143 0.561903 34.7709 1.5621 35.7711C2.56229 36.7713 3.91885 37.3332 5.33333 37.3332H21.0933C20.4606 41.0573 18.5319 44.4379 15.6481 46.8777C12.7642 49.3175 9.1108 50.6595 5.33333 50.6665C4.62609 50.6665 3.94781 50.9475 3.44772 51.4476C2.94762 51.9476 2.66667 52.6259 2.66667 53.3332C2.66667 54.0404 2.94762 54.7187 3.44772 55.2188C3.94781 55.7189 4.62609 55.9998 5.33333 55.9998C10.9893 55.9935 16.4119 53.7438 20.4113 49.7444C24.4107 45.745 26.6603 40.3225 26.6667 34.6665V15.9998C26.6667 14.5853 26.1048 13.2288 25.1046 12.2286C24.1044 11.2284 22.7478 10.6665 21.3333 10.6665Z" fill="#FFB452"/>
<path d="M58.6667 10.6665H48C45.171 10.6665 42.4579 11.7903 40.4575 13.7907C38.4571 15.7911 37.3333 18.5042 37.3333 21.3332V31.9998C37.3333 33.4143 37.8952 34.7709 38.8954 35.7711C39.8956 36.7713 41.2522 37.3332 42.6667 37.3332H58.4267C57.794 41.0573 55.8653 44.4379 52.9814 46.8777C50.0976 49.3175 46.4441 50.6595 42.6667 50.6665C41.9594 50.6665 41.2812 50.9475 40.7811 51.4476C40.281 51.9476 40 52.6259 40 53.3332C40 54.0404 40.281 54.7187 40.7811 55.2188C41.2812 55.7189 41.9594 55.9998 42.6667 55.9998C48.3227 55.9935 53.7452 53.7438 57.7446 49.7444C61.744 45.745 63.9937 40.3225 64 34.6665V15.9998C64 14.5853 63.4381 13.2288 62.4379 12.2286C61.4377 11.2284 60.0812 10.6665 58.6667 10.6665Z" fill="#FFB452"/>
</g>
<defs>
<clipPath id="clip0_566_483">
<rect width="64" height="64" fill="white"/>
</clipPath>
</defs>
</svg>
