<svg width="24" height="24" viewBox="0 0 24 24" fill="none" xmlns="http://www.w3.org/2000/svg">
<path d="M12.5 12C13.5878 12 14.6512 11.6774 15.5556 11.0731C16.4601 10.4687 17.1651 9.60975 17.5813 8.60476C17.9976 7.59977 18.1065 6.4939 17.8943 5.427C17.6821 4.36011 17.1583 3.3801 16.3891 2.61091C15.6199 1.84173 14.6399 1.3179 13.573 1.10568C12.5061 0.893465 11.4002 1.00238 10.3952 1.41866C9.39025 1.83495 8.53126 2.5399 7.92692 3.44437C7.32257 4.34884 7 5.4122 7 6.5C7.00146 7.95824 7.58139 9.35635 8.61252 10.3875C9.64366 11.4186 11.0418 11.9985 12.5 12ZM12.5 2.83334C13.2252 2.83334 13.9341 3.04838 14.5371 3.45128C15.1401 3.85418 15.61 4.42683 15.8876 5.09683C16.1651 5.76682 16.2377 6.50407 16.0962 7.21533C15.9547 7.9266 15.6055 8.57993 15.0927 9.09273C14.5799 9.60552 13.9266 9.95473 13.2153 10.0962C12.5041 10.2377 11.7668 10.1651 11.0968 9.88756C10.4268 9.61004 9.85418 9.14007 9.45128 8.53709C9.04838 7.93411 8.83333 7.2252 8.83333 6.5C8.83333 5.52754 9.21964 4.59491 9.90727 3.90728C10.5949 3.21964 11.5275 2.83334 12.5 2.83334Z" fill="#6E7C99"/>
<path d="M12 14C9.87899 14.0024 7.84553 14.8565 6.34574 16.3751C4.84596 17.8936 4.00235 19.9525 4 22.1C4 22.3387 4.09365 22.5676 4.26035 22.7364C4.42705 22.9052 4.65314 23 4.88889 23C5.12464 23 5.35073 22.9052 5.51743 22.7364C5.68413 22.5676 5.77778 22.3387 5.77778 22.1C5.77778 20.4291 6.43333 18.8267 7.60022 17.6452C8.76712 16.4637 10.3498 15.8 12 15.8C13.6502 15.8 15.2329 16.4637 16.3998 17.6452C17.5667 18.8267 18.2222 20.4291 18.2222 22.1C18.2222 22.3387 18.3159 22.5676 18.4826 22.7364C18.6493 22.9052 18.8754 23 19.1111 23C19.3469 23 19.573 22.9052 19.7397 22.7364C19.9064 22.5676 20 22.3387 20 22.1C19.9976 19.9525 19.154 17.8936 17.6543 16.3751C16.1545 14.8565 14.121 14.0024 12 14Z" fill="#6E7C99"/>
</svg>
