<svg width="36" height="36" viewBox="0 0 36 36" fill="none" xmlns="http://www.w3.org/2000/svg">
<path d="M32.6494 30.8834L25.1943 23.4282C27.2259 20.9435 28.2248 17.773 27.9843 14.5725C27.7438 11.3719 26.2824 8.38625 23.9023 6.23301C21.5222 4.07976 18.4056 2.92369 15.197 3.00391C11.9885 3.08414 8.93351 4.39452 6.66402 6.66402C4.39452 8.93351 3.08414 11.9885 3.00391 15.197C2.92369 18.4056 4.07976 21.5222 6.23301 23.9023C8.38625 26.2824 11.3719 27.7438 14.5725 27.9843C17.773 28.2248 20.9435 27.2259 23.4282 25.1943L30.8834 32.6494C31.1189 32.8769 31.4344 33.0028 31.7619 33C32.0894 32.9971 32.4026 32.8658 32.6342 32.6342C32.8658 32.4026 32.9971 32.0894 33 31.7619C33.0028 31.4344 32.8769 31.1189 32.6494 30.8834ZM15.5297 25.5215C13.5535 25.5215 11.6217 24.9355 9.97857 23.8376C8.33543 22.7397 7.05476 21.1792 6.2985 19.3534C5.54225 17.5276 5.34438 15.5186 5.72991 13.5804C6.11545 11.6422 7.06708 9.86183 8.46445 8.46445C9.86183 7.06708 11.6422 6.11545 13.5804 5.72991C15.5186 5.34438 17.5276 5.54225 19.3534 6.2985C21.1792 7.05476 22.7397 8.33543 23.8376 9.97857C24.9355 11.6217 25.5215 13.5535 25.5215 15.5297C25.5185 18.1788 24.4649 20.7185 22.5917 22.5917C20.7185 24.4649 18.1788 25.5185 15.5297 25.5215Z" fill="#1C1D1F"/>
<path fill-rule="evenodd" clip-rule="evenodd" d="M15.75 10.5C16.3943 10.5 16.9167 11.0223 16.9167 11.6667V14.5833H19.8333C20.4777 14.5833 21 15.1057 21 15.75C21 16.3943 20.4777 16.9167 19.8333 16.9167H16.9167V19.8333C16.9167 20.4777 16.3943 21 15.75 21C15.1057 21 14.5833 20.4777 14.5833 19.8333V16.9167H11.6667C11.0223 16.9167 10.5 16.3943 10.5 15.75C10.5 15.1057 11.0223 14.5833 11.6667 14.5833H14.5833V11.6667C14.5833 11.0223 15.1057 10.5 15.75 10.5Z" fill="#1C1D1F"/>
</svg>
