<svg width="64" height="64" viewBox="0 0 64 64" fill="none" xmlns="http://www.w3.org/2000/svg">
<g clip-path="url(#clip0_475_273)">
<path d="M48.4881 37.5273H58.8797C59.8578 37.5273 60.6508 36.7343 60.6508 35.7561C60.6508 34.778 59.8578 33.985 58.8797 33.985H50.6577M4.85261 4.47755V33.985M57.63 33.985V4.47755M25.7299 33.985H3.94187C2.96374 33.985 2.17075 34.778 2.17075 35.7561C2.17075 36.7343 2.96374 37.5273 3.94187 37.5273H28.0672M58.8798 0.935303H3.94224C2.96399 0.935303 2.171 1.7283 2.171 2.70642C2.171 3.68467 2.96399 4.47767 3.94224 4.47767H58.8798C59.8579 4.47767 60.6509 3.68467 60.6509 2.70642C60.6509 1.7283 59.8579 0.935303 58.8798 0.935303ZM15.8762 12.9979H9.99035C9.9174 12.9979 9.84517 12.9836 9.77778 12.9557C9.71038 12.9278 9.64914 12.8868 9.59756 12.8353C9.54597 12.7837 9.50505 12.7225 9.47714 12.6551C9.44922 12.5877 9.43485 12.5155 9.43485 12.4425V8.80653C9.43485 8.73358 9.44922 8.66135 9.47713 8.59395C9.50505 8.52655 9.54597 8.46532 9.59755 8.41373C9.64913 8.36215 9.71037 8.32123 9.77777 8.29332C9.84516 8.2654 9.9174 8.25103 9.99035 8.25103H15.8762C15.9492 8.25103 16.0214 8.2654 16.0888 8.29332C16.1562 8.32123 16.2174 8.36215 16.269 8.41373C16.3206 8.46532 16.3615 8.52655 16.3894 8.59395C16.4173 8.66135 16.4317 8.73358 16.4317 8.80653V12.4425C16.4317 12.5898 16.3731 12.7311 16.269 12.8352C16.1648 12.9394 16.0235 12.9979 15.8762 12.9979ZM15.8762 21.6866H9.99035C9.84302 21.6866 9.70173 21.6281 9.59755 21.5239C9.49338 21.4197 9.43485 21.2784 9.43485 21.1311V17.4953C9.43485 17.3479 9.49337 17.2066 9.59754 17.1024C9.70172 16.9982 9.84301 16.9397 9.99035 16.9396H15.8762C16.0235 16.9397 16.1648 16.9982 16.269 17.1024C16.3732 17.2066 16.4317 17.3479 16.4317 17.4953V21.1311C16.4317 21.2784 16.3732 21.4197 16.269 21.5239C16.1648 21.6281 16.0235 21.6866 15.8762 21.6866ZM15.8762 30.3752H9.99035C9.9174 30.3752 9.84517 30.3609 9.77778 30.333C9.71038 30.3051 9.64914 30.2642 9.59756 30.2126C9.54597 30.161 9.50505 30.0998 9.47714 30.0324C9.44922 29.965 9.43485 29.8928 9.43485 29.8198V26.1839C9.43485 26.1109 9.44922 26.0387 9.47713 25.9713C9.50505 25.9039 9.54597 25.8426 9.59755 25.7911C9.64913 25.7395 9.71037 25.6986 9.77777 25.6706C9.84516 25.6427 9.9174 25.6284 9.99035 25.6284H15.8762C15.9492 25.6284 16.0214 25.6427 16.0888 25.6706C16.1562 25.6986 16.2174 25.7395 16.269 25.7911C16.3206 25.8426 16.3615 25.9039 16.3894 25.9713C16.4173 26.0387 16.4317 26.1109 16.4317 26.1839V29.8198C16.4317 29.9671 16.3731 30.1084 16.269 30.2126C16.1648 30.3167 16.0235 30.3752 15.8762 30.3752Z" stroke="#F79E2A" stroke-width="2" stroke-miterlimit="10" stroke-linecap="round" stroke-linejoin="round"/>
<path d="M38.2043 8.86518V14.3759M42.7275 9.61931V12.1877M33.681 12.1877V9.61931M49.88 21.5775V19.9624C49.88 13.7942 44.8798 8.79395 38.7117 8.79395H37.6965C31.5284 8.79395 26.5282 13.7942 26.5282 19.9624V21.5775M26.2428 24.8104C26.1436 25.0337 26.0923 25.2753 26.0923 25.5196V27.4643C26.0923 28.4334 26.8781 29.2191 27.8472 29.2191H28.5108C28.5656 31.7659 29.6358 34.2172 31.5692 35.882C33.1257 37.2222 35.3138 38.3921 38.204 38.4244C41.0944 38.3921 43.2824 37.2222 44.839 35.882C46.7724 34.2172 47.8426 31.7659 47.8972 29.2191H48.561C49.5301 29.2191 50.3159 28.4334 50.3159 27.4643V25.5196C50.3159 25.267 50.2614 25.0274 50.1654 24.8104M38.2042 63.0649V57.4043M38.2042 57.4043C38.2043 55.814 37.7132 54.2625 36.798 52.9619C34.1708 49.2278 28.7802 41.3792 28.7802 41.3792M38.2042 57.4043C38.204 55.814 38.6951 54.2625 39.6103 52.9619C42.2375 49.2278 47.6283 41.3792 47.6283 41.3792M20.1902 43.2781L20.8177 45.3765C21.8417 48.9033 22.3615 52.5574 22.3615 56.2299V63.065M56.2181 43.2781L55.5906 45.3765C54.5666 48.9033 54.0469 52.5574 54.0469 56.2299V63.065M14.5792 56.3021V60.1824C14.5792 61.7744 15.8698 63.065 17.462 63.065H58.9462C60.5383 63.065 61.829 61.7744 61.829 60.1824V50.6464C61.829 46.2176 58.912 43.9981 54.6632 42.7473L43.4119 40.5594M43.4119 40.5594V36.9255M43.4119 40.5594C43.4119 43.4356 38.2042 45.7672 38.2042 45.7672M32.9964 36.9255V40.5592M32.9964 40.5592L21.745 42.7472C17.4965 43.9981 14.5793 46.2176 14.5793 50.6464V52.5723M32.9964 40.5592C32.9964 43.4353 38.2042 45.7672 38.2042 45.7672M38.2042 45.7672L41.1168 47.5136C41.7568 47.8972 42.5665 47.8623 43.1655 47.4173M38.2042 45.7672L35.2915 47.5136C34.6515 47.8972 33.8415 47.8623 33.2427 47.4173M50.2386 24.8104H26.1698C25.2771 24.8104 24.5533 24.0868 24.5533 23.1939C24.5533 22.3012 25.2771 21.5774 26.1698 21.5774H50.2386C51.1315 21.5774 51.8552 22.3012 51.8552 23.1939C51.8552 24.0868 51.1315 24.8104 50.2386 24.8104ZM48.8282 58.3724H43.3149C43.1383 58.3724 42.969 58.3023 42.8441 58.1774C42.7193 58.0526 42.6491 57.8832 42.6491 57.7067V55.8282C42.6491 55.7408 42.6664 55.6542 42.6998 55.5734C42.7333 55.4927 42.7823 55.4193 42.8441 55.3575C42.906 55.2957 42.9794 55.2466 43.0601 55.2132C43.1409 55.1797 43.2275 55.1625 43.3149 55.1626H48.8282C49.0048 55.1626 49.1741 55.2327 49.2989 55.3575C49.4237 55.4823 49.4939 55.6516 49.4939 55.8282V57.7067C49.4939 57.8832 49.4237 58.0525 49.2989 58.1774C49.1741 58.3022 49.0048 58.3724 48.8282 58.3724Z" stroke="#1C1D1F" stroke-width="2" stroke-miterlimit="10" stroke-linecap="round" stroke-linejoin="round"/>
</g>
<defs>
<clipPath id="clip0_475_273">
<rect width="64" height="64" fill="white"/>
</clipPath>
</defs>
</svg>
