<svg width="64" height="64" viewBox="0 0 64 64" fill="none" xmlns="http://www.w3.org/2000/svg">
<g clip-path="url(#clip0_475_570)">
<path d="M8.36212 42.0658C7.43391 39.8891 6.80924 37.5951 6.50562 35.2483M5.0915 43.7868C2.0515 36.8537 1.76112 28.8542 4.53125 21.5554L2.42462 20.4672L9.60212 15.8979L10.0839 24.3698L7.83625 23.2246C6.93112 25.7199 6.42037 28.2963 6.31387 30.8773M58.8706 20.2876C61.8214 27.1218 62.1389 34.9872 59.4697 42.1781L61.6065 43.2782L54.429 47.8474L53.9472 39.3756L56.1659 40.5007C58.3106 34.4174 58.025 27.8137 55.6062 22.028M35.8417 40.3138L38.0867 44.8616L43.1067 45.5909L39.4742 49.1308L40.3319 54.1293L35.8417 51.7694L31.3517 54.1293L32.2092 49.1308L28.5767 45.5909L33.5967 44.8616L35.8417 40.3138Z" stroke="#F79E2A" stroke-width="2" stroke-miterlimit="10" stroke-linecap="round" stroke-linejoin="round"/>
<path d="M22.1865 54.5244C21.1721 59.3995 16.8511 63.0625 11.6746 63.0625C5.74463 63.0625 0.9375 58.2557 0.9375 52.3264C0.9375 46.397 5.74463 41.5902 11.6746 41.5902C17.1693 41.5902 21.6999 45.7171 22.3355 51.0401M17.95 60.5946V59.5514C17.95 59.1816 17.8766 58.8156 17.7341 58.4744C17.5916 58.1332 17.3828 57.8237 17.1199 57.5638C16.7801 57.228 16.3599 56.9849 15.8995 56.8576L13.8274 56.2851C13.7096 56.2526 13.6058 56.1824 13.5318 56.0852C13.4578 55.9879 13.4177 55.8692 13.4178 55.747V54.1305M9.93137 54.1307V55.7472C9.93136 55.8694 9.89129 55.9882 9.8173 56.0854C9.74331 56.1826 9.63949 56.2528 9.52175 56.2854L7.44963 56.8579C6.98916 56.9851 6.56899 57.2282 6.22925 57.564C5.96626 57.8239 5.75746 58.1334 5.61497 58.4746C5.47247 58.8158 5.3991 59.1819 5.39913 59.5516V60.5412M14.0789 56.5174C13.0552 58.4444 10.2938 58.4444 9.27025 56.5174M41.6081 12.332C41.5949 12.1128 41.5883 11.8932 41.5882 11.6736C41.5882 5.74425 46.3954 0.9375 52.3254 0.9375C58.2554 0.9375 63.0625 5.74425 63.0625 11.6736C63.0625 17.603 58.2554 22.4097 52.3254 22.4097C47.4285 22.4097 43.2974 19.132 42.0065 14.6509M58.6009 20.192V18.8988C58.6009 18.529 58.5275 18.1629 58.385 17.8217C58.2425 17.4806 58.0337 17.171 57.7707 16.9111C57.431 16.5753 57.0108 16.3322 56.5504 16.205L54.4782 15.6325C54.3605 15.6 54.2567 15.5297 54.1827 15.4325C54.1087 15.3353 54.0686 15.2165 54.0686 15.0944V13.4779M50.5822 13.478V15.0945C50.5822 15.2167 50.5422 15.3354 50.4682 15.4326C50.3942 15.5298 50.2904 15.6001 50.1726 15.6326L48.1005 16.2051C47.64 16.3323 47.2199 16.5754 46.8801 16.9112C46.6171 17.1712 46.4083 17.4807 46.2658 17.8219C46.1233 18.163 46.05 18.5291 46.05 18.8989V20.2635M54.7298 15.8647C53.7061 17.7917 50.9446 17.7917 49.9211 15.8647M23.0149 8.06913H18.4776C17.5224 8.06913 16.7469 8.84412 16.7469 9.80062V28.993C16.7469 29.9486 17.5224 30.7245 18.4776 30.7245H27.8301M32.2051 30.7245H36.5871C37.5424 30.7245 38.3179 29.9488 38.3179 28.993V19.2178C38.3179 19.0126 38.3901 18.8151 38.522 18.6588L42.7253 13.677C42.8436 13.5369 42.9084 13.3594 42.9084 13.176C42.9084 12.7465 42.5605 12.3976 42.1312 12.3976H39.1831C39.0695 12.3976 38.9569 12.3752 38.8519 12.3317C38.7469 12.2882 38.6515 12.2244 38.5711 12.144C38.4908 12.0636 38.427 11.9682 38.3835 11.8631C38.3401 11.7581 38.3177 11.6455 38.3177 11.5319V9.8005C38.3177 8.844 37.5423 8.069 36.587 8.069H27.3896M21.8991 13.9015H33.143M21.8991 19.3967H33.143M21.8991 24.892H27.2183M46.5795 50.808V37.875C46.5795 36.9194 45.804 36.1435 44.8488 36.1435H26.7393C25.784 36.1435 25.0085 36.9193 25.0085 37.875V47.6502C25.0086 47.8548 24.9363 48.0529 24.8044 48.2093L20.6011 53.191C20.4828 53.3311 20.4179 53.5086 20.418 53.692C20.418 54.1215 20.7659 54.4704 21.1951 54.4704H24.1432C24.6212 54.4704 25.0086 54.8579 25.0086 55.3361V57.0676C25.0086 58.0241 25.7841 58.7991 26.7394 58.7991H44.8489C45.8041 58.7991 46.5796 58.0241 46.5796 57.0676V55.1833M9.96875 53.8641L10.4459 54.135C10.8205 54.3476 11.2438 54.4594 11.6746 54.4594C12.1053 54.4594 12.5286 54.3476 12.9032 54.135L13.3804 53.8641C14.0234 53.4991 14.5582 52.9702 14.9302 52.3313C15.3022 51.6923 15.4982 50.9661 15.4983 50.2267V48.8545C15.4982 48.1188 15.2856 47.3988 14.886 46.781C14.4864 46.1633 13.9169 45.6742 13.2459 45.3725C12.7518 45.1504 12.2163 45.0356 11.6746 45.0356C11.1329 45.0356 10.5973 45.1504 10.1032 45.3725C9.43221 45.6741 8.86262 46.1632 8.46303 46.781C8.06344 47.3987 7.85086 48.1188 7.85087 48.8545V50.2267C7.85085 50.9661 8.04685 51.6923 8.41889 52.3313C8.79093 52.9702 9.32572 53.4992 9.96875 53.8641ZM50.6196 13.2115L51.0967 13.4824C51.4713 13.695 51.8947 13.8067 52.3254 13.8067C52.7562 13.8067 53.1795 13.695 53.5541 13.4824L54.0312 13.2115C54.6743 12.8465 55.209 12.3176 55.5811 11.6786C55.9531 11.0397 56.1491 10.3135 56.1491 9.57413V8.20187C56.1491 7.46617 55.9365 6.74614 55.5369 6.1284C55.1373 5.51067 54.5678 5.02155 53.8968 4.71987C53.4027 4.49778 52.8671 4.38295 52.3254 4.38295C51.7837 4.38295 51.2482 4.49778 50.7541 4.71987C50.0831 5.02151 49.5135 5.51062 49.1139 6.12837C48.7143 6.74611 48.5017 7.46616 48.5018 8.20187V9.57413C48.5017 10.3135 48.6977 11.0397 49.0698 11.6787C49.4418 12.3176 49.9766 12.8465 50.6196 13.2115Z" stroke="#1C1D1F" stroke-width="2" stroke-miterlimit="10" stroke-linecap="round" stroke-linejoin="round"/>
</g>
<defs>
<clipPath id="clip0_475_570">
<rect width="64" height="64" fill="white"/>
</clipPath>
</defs>
</svg>
