<svg width="64" height="64" viewBox="0 0 64 64" fill="none" xmlns="http://www.w3.org/2000/svg">
<g clip-path="url(#clip0_2013_848)">
<path d="M13.8541 63.0625H5.07949C2.79212 63.0625 0.937875 61.2082 0.937875 58.921M0.937875 58.921C0.937875 56.6336 2.79187 54.7787 5.07924 54.7787L10.2563 54.7791C10.5309 54.7791 10.7943 54.67 10.9884 54.4758C11.1826 54.2817 11.2917 54.0183 11.2917 53.7437V16.4687C11.2917 16.1941 11.1826 15.9308 10.9885 15.7366C10.7943 15.5424 10.5309 15.4334 10.2563 15.4334H5.07924C2.79187 15.4334 0.9375 17.2877 0.9375 19.5751L0.937875 58.921ZM55.8145 19.5751H62.0268C62.1628 19.5751 62.2974 19.6018 62.4231 19.6539C62.5487 19.7059 62.6628 19.7822 62.759 19.8783C62.8551 19.9745 62.9314 20.0886 62.9834 20.2142C63.0354 20.3398 63.0622 20.4745 63.0622 20.6105V62.0272C63.0622 62.3018 62.9531 62.5652 62.7589 62.7593C62.5648 62.9535 62.3014 63.0626 62.0268 63.0626H17.6041M11.2916 19.5751H15.4333M7.15023 19.5752V15.4333M7.15023 54.7792V50.6375M15.4334 56.8496H21.6458M25.7874 56.8496H36.1415M40.2833 56.8496H48.5666" stroke="#F79E2A" stroke-width="2" stroke-miterlimit="10" stroke-linecap="round" stroke-linejoin="round"/>
<path d="M15.4333 40.2835V44.4251M58.9206 40.2835V44.4251M15.4333 42.3542H58.9206M47.3352 0.937744H55.8498C56.115 0.937744 56.3694 1.0431 56.5569 1.23064C56.7445 1.41817 56.8498 1.67253 56.8498 1.93774V4.07936C56.8498 4.34458 56.7445 4.59893 56.5569 4.78646C56.3694 4.974 56.115 5.07936 55.8498 5.07936H41.2832C41.018 5.07936 40.7637 4.974 40.5761 4.78646C40.3886 4.59893 40.2832 4.34458 40.2832 4.07936V1.93774C40.2832 1.67253 40.3886 1.41817 40.5761 1.23064C40.7637 1.0431 41.018 0.937744 41.2832 0.937744H43.5854M41.3186 5.07948V32.0002H55.8144V5.07948H41.3186ZM41.3186 5.07948L18.3622 9.07184C18.1219 9.11362 17.9041 9.23884 17.7471 9.42546C17.5902 9.61207 17.5041 9.8481 17.5041 10.092V13.3628M44.4249 9.22109H52.7082M44.4249 13.3627H52.7082M44.4249 17.5044H52.7082M25.2697 17.5043V23.7169M31.4821 17.5043V23.7169M57.9206 36.1418H16.4333C16.1681 36.1418 15.9138 36.0364 15.7262 35.8489C15.5387 35.6613 15.4333 35.407 15.4333 35.1418V33.0001C15.4333 32.7349 15.5387 32.4806 15.7262 32.293C15.9138 32.1055 16.1681 32.0001 16.4333 32.0001H57.9206C58.1858 32.0001 58.4401 32.1055 58.6277 32.293C58.8152 32.4806 58.9206 32.7349 58.9206 33.0001V35.1418C58.9206 35.407 58.8152 35.6613 58.6277 35.8489C58.4401 36.0364 58.1858 36.1418 57.9206 36.1418ZM22.7165 52.7083H16.4332C16.168 52.7083 15.9136 52.603 15.7261 52.4154C15.5386 52.2279 15.4332 51.9736 15.4332 51.7083V49.5667C15.4332 49.3015 15.5386 49.0472 15.7261 48.8596C15.9136 48.6721 16.168 48.5667 16.4332 48.5667H22.7165C22.9818 48.5667 23.2361 48.6721 23.4237 48.8596C23.6112 49.0472 23.7165 49.3015 23.7165 49.5667V51.7083C23.7165 51.9736 23.6112 52.2279 23.4237 52.4154C23.2361 52.603 22.9818 52.7083 22.7165 52.7083ZM23.7165 32.0002H19.5749V27.8585H23.7165V32.0002ZM36.1415 32.0002H31.9999V27.8585H36.1415V32.0002ZM51.6727 32.0002H45.4602V24.7168C45.4602 24.4516 45.5656 24.1972 45.7531 24.0097C45.9407 23.8222 46.195 23.7168 46.4602 23.7168H50.6727C50.9379 23.7168 51.1923 23.8222 51.3798 24.0097C51.5674 24.1972 51.6727 24.4516 51.6727 24.7168V32.0002ZM41.3186 27.8585H16.4333C16.1681 27.8585 15.9138 27.7532 15.7262 27.5656C15.5387 27.3781 15.4333 27.1238 15.4333 26.8585V14.3628C15.4333 14.0976 15.5387 13.8433 15.7262 13.6557C15.9138 13.4682 16.1681 13.3628 16.4333 13.3628H41.3186V27.8585ZM36.177 23.7169H20.5751C20.3098 23.7169 20.0555 23.6116 19.8679 23.424C19.6804 23.2365 19.5751 22.9821 19.5751 22.7169V18.5043C19.5751 18.2391 19.6804 17.9847 19.8679 17.7972C20.0555 17.6097 20.3098 17.5043 20.5751 17.5043H36.177C36.4422 17.5043 36.6966 17.6097 36.8841 17.7972C37.0716 17.9847 37.177 18.2391 37.177 18.5043V22.7169C37.177 22.9821 37.0716 23.2365 36.8841 23.424C36.6966 23.6116 36.4422 23.7169 36.177 23.7169Z" stroke="#F79E2A" stroke-width="2" stroke-miterlimit="10" stroke-linecap="round" stroke-linejoin="round"/>
</g>
<defs>
<clipPath id="clip0_2013_848">
<rect width="64" height="64" fill="white"/>
</clipPath>
</defs>
</svg>
