<svg width="64" height="64" viewBox="0 0 64 64" fill="none" xmlns="http://www.w3.org/2000/svg">
<g clip-path="url(#clip0_829_878)">
<path d="M32.1249 62.5C22.0249 62.5 13.1249 55.7 10.4749 45.9625C10.3499 45.5 10.6249 45.0125 11.0874 44.8875C11.5499 44.7625 12.0374 45.0375 12.1624 45.5C14.5999 54.475 22.7999 60.75 32.1249 60.75C43.5248 60.75 52.7999 51.475 52.7999 40.075C52.7999 28.675 43.5248 19.4 32.1249 19.4C21.1749 19.4 12.1124 27.95 11.4749 38.875C11.4499 39.3625 11.0374 39.725 10.5499 39.7C10.0624 39.675 9.69985 39.2625 9.72485 38.775C10.4124 26.925 20.2374 17.65 32.1124 17.65C44.4748 17.65 54.5373 27.7125 54.5373 40.075C54.5499 52.4375 44.4874 62.5 32.1249 62.5Z" fill="#1C1D1F"/>
<path d="M32.1248 58.7125C21.8498 58.7125 13.4873 50.35 13.4873 40.075C13.4873 29.8 21.8498 21.4375 32.1248 21.4375C42.3998 21.4375 50.7623 29.8 50.7623 40.075C50.7623 50.35 42.3998 58.7125 32.1248 58.7125ZM32.1248 23.1875C22.8123 23.1875 15.2373 30.7625 15.2373 40.075C15.2373 49.3875 22.8123 56.9625 32.1248 56.9625C41.4373 56.9625 49.0123 49.3875 49.0123 40.075C49.0123 30.7625 41.4373 23.1875 32.1248 23.1875Z" fill="#1C1D1F"/>
<path d="M24.4129 51.6C24.3129 51.6 24.2254 51.6 24.1254 51.5875C22.9879 51.45 21.7754 50.4375 21.7754 48.5375V36.0125C21.7754 34.05 23.0254 33.0875 24.2629 33C25.4254 32.9125 26.4504 33.55 26.9004 34.55H28.1129C28.1754 34.55 28.2129 34.525 28.2379 34.4625L30.6754 28.625C31.0379 27.75 31.7879 27.1375 32.7129 26.9375C33.6379 26.7375 34.5629 26.9875 35.2629 27.6375C37.3629 29.5875 36.8129 31.6 35.7754 34.55H40.7504C41.7879 34.55 42.7254 35 43.3879 35.8C44.0504 36.6125 44.3004 37.6 44.0879 38.6375L42.3254 47.1875C42.0004 48.7875 40.6254 49.9125 38.9879 49.9125H37.7879C37.3004 49.9125 36.9129 49.525 36.9129 49.0375C36.9129 48.55 37.3004 48.1625 37.7879 48.1625H38.9879C39.7879 48.1625 40.4504 47.6125 40.6129 46.8375L42.3754 38.2875C42.4754 37.775 42.3629 37.3125 42.0379 36.9125C41.7129 36.5 41.2754 36.3 40.7504 36.3H34.5504C34.2629 36.3 34.0004 36.1625 33.8379 35.9375C33.6754 35.7125 33.6254 35.4125 33.7254 35.1375C33.8004 34.925 33.8754 34.7125 33.9504 34.5125C35.1004 31.2375 35.4004 30.15 34.0754 28.925C33.8004 28.6625 33.4629 28.575 33.0879 28.65C32.7129 28.7375 32.4504 28.95 32.3004 29.3125L29.8629 35.15C29.5754 35.85 28.8879 36.3125 28.1254 36.3125H26.2629C25.8254 36.3125 25.4629 35.9875 25.4004 35.5625C25.3129 34.925 24.7504 34.7375 24.4004 34.7625C23.8504 34.8 23.5379 35.2625 23.5379 36.025V48.5375C23.5379 49.4375 23.9754 49.8 24.3504 49.85C24.7129 49.9 25.2254 49.65 25.4254 48.825C25.5254 48.4375 25.8754 48.1625 26.2754 48.1625H30.8754C31.3629 48.1625 31.7504 48.55 31.7504 49.0375C31.7504 49.525 31.3629 49.9125 30.8754 49.9125H26.9004C26.3504 51.0875 25.3254 51.6 24.4129 51.6Z" fill="#F79E2A"/>
<path d="M26.2627 49.9C25.7752 49.9 25.3877 49.5125 25.3877 49.025L25.3627 35.4125C25.3627 34.925 25.7502 34.5375 26.2377 34.5375C26.7252 34.5375 27.1127 34.925 27.1127 35.4125L27.1377 49.025C27.1377 49.5125 26.7502 49.9 26.2627 49.9ZM9.57516 29.35C9.36267 29.35 9.15017 29.275 8.98767 29.125L6.13767 26.55L2.82517 28.475C2.50017 28.6625 2.08767 28.625 1.80017 28.375C1.51267 28.125 1.42517 27.7125 1.58767 27.3625L3.15017 23.8625L0.287665 21.3C0.000165343 21.05 -0.0873346 20.6375 0.0751653 20.2875C0.225165 19.9375 0.587665 19.725 0.962665 19.775L4.77517 20.175L6.32517 16.6625C6.47517 16.3125 6.83767 16.1125 7.21267 16.15C7.58767 16.1875 7.90017 16.4625 7.97517 16.8375L8.76266 20.6L12.5752 20.9875C12.9502 21.025 13.2627 21.3 13.3377 21.675C13.4127 22.05 13.2502 22.425 12.9127 22.6125L9.62516 24.5375L10.4377 28.2875C10.5127 28.6625 10.3502 29.0375 10.0252 29.225C9.87516 29.3125 9.72516 29.35 9.57516 29.35ZM6.25017 24.6C6.46267 24.6 6.67517 24.675 6.83767 24.825L8.15016 26.0125L7.77517 24.2875C7.70017 23.9125 7.86267 23.5375 8.18766 23.35L9.71266 22.4625L7.96267 22.2875C7.58767 22.25 7.27517 21.975 7.20017 21.6L6.83767 19.875L6.12517 21.475C5.97517 21.825 5.61267 22.0375 5.23767 21.9875L3.48767 21.8L4.80017 22.975C5.08767 23.225 5.17517 23.6375 5.01267 23.9875L4.28767 25.6L5.81267 24.7125C5.95017 24.6375 6.10017 24.6 6.25017 24.6ZM17.5252 19.375C17.1502 19.375 16.8127 19.125 16.6877 18.775L15.5002 15.125H11.6752C11.3002 15.125 10.9627 14.8875 10.8377 14.525C10.7252 14.1625 10.8502 13.7625 11.1502 13.55L14.2627 11.3L13.0627 7.64999C12.9502 7.28749 13.0752 6.88749 13.3752 6.67499C13.6877 6.44999 14.1002 6.44999 14.4002 6.67499L17.5002 8.93749L20.6252 6.64999C20.9377 6.42499 21.3502 6.42499 21.6502 6.64999C21.9627 6.87499 22.0877 7.27499 21.9627 7.62499L20.7752 11.275L23.8877 13.525C24.2002 13.75 24.3252 14.1375 24.2127 14.5C24.1002 14.8625 23.7627 15.1 23.3752 15.1H19.5377L18.3627 18.75C18.2377 19.125 17.9002 19.375 17.5252 19.375ZM16.1502 13.3625C16.5252 13.3625 16.8627 13.6125 16.9877 13.9625L17.5377 15.65L18.0752 13.9625C18.1877 13.6 18.5252 13.35 18.9127 13.35H20.6752L19.2377 12.3125C18.9252 12.0875 18.8002 11.6875 18.9127 11.3375L19.4627 9.66249L18.0377 10.7C17.7252 10.925 17.3127 10.925 17.0127 10.7L15.5877 9.66249L16.1377 11.3375C16.2502 11.7 16.1252 12.1 15.8252 12.325L14.4002 13.3625H16.1502ZM29.4002 14.7125C29.2502 14.7125 29.1002 14.675 28.9627 14.6C28.6377 14.4125 28.4627 14.025 28.5377 13.6625L29.3377 9.91249L26.0127 7.99999C25.6877 7.81249 25.5127 7.42499 25.5877 7.06249C25.6627 6.69999 25.9752 6.41249 26.3502 6.37499L30.1627 5.97499L30.9502 2.21249C31.0252 1.83749 31.3377 1.56249 31.7127 1.52499C32.0877 1.48749 32.4502 1.68749 32.6002 2.03749L34.1627 5.54999L38.0002 5.12499C38.3752 5.08749 38.7377 5.28749 38.8877 5.63749C39.0377 5.98749 38.9502 6.38749 38.6752 6.64999L35.8252 9.21249L37.4002 12.7125C37.5502 13.0625 37.4752 13.4625 37.1877 13.725C36.9002 13.975 36.4877 14.025 36.1627 13.8375L32.8377 11.9125L29.9877 14.4875C29.8252 14.625 29.6127 14.7125 29.4002 14.7125ZM29.2377 7.81249L30.7627 8.68749C31.0877 8.87499 31.2627 9.26249 31.1877 9.62499L30.8127 11.35L32.1252 10.1625C32.4127 9.91249 32.8252 9.86249 33.1502 10.05L34.6752 10.9375L33.9502 9.32499C33.8002 8.97499 33.8752 8.57499 34.1627 8.31249L35.4752 7.13749L33.7252 7.32499C33.3502 7.36249 32.9877 7.16249 32.8252 6.81249L32.1252 5.21249L31.7627 6.93749C31.6877 7.31249 31.3752 7.58749 31.0002 7.62499L29.2377 7.81249ZM48.6252 19.5375C48.3127 19.5375 48.0252 19.375 47.8627 19.1L45.9502 15.775L42.2002 16.5875C41.8252 16.6625 41.4502 16.5 41.2627 16.175C41.0752 15.85 41.1127 15.4375 41.3752 15.15L43.9502 12.3L42.0252 8.97499C41.8377 8.64999 41.8752 8.23749 42.1252 7.94999C42.3752 7.66249 42.7877 7.57499 43.1377 7.73749L46.6377 9.29999L49.2002 6.43749C49.4502 6.14999 49.8627 6.06249 50.2127 6.22499C50.5627 6.37499 50.7627 6.73749 50.7252 7.11249L50.3252 10.9375L53.8377 12.4875C54.1877 12.6375 54.4002 13 54.3502 13.375C54.3127 13.75 54.0377 14.0625 53.6627 14.1375L49.9002 14.9375L49.5002 18.75C49.4627 19.125 49.1877 19.4375 48.8127 19.5125C48.7502 19.525 48.6877 19.5375 48.6252 19.5375ZM46.3877 13.9125C46.7002 13.9125 46.9877 14.075 47.1502 14.35L48.0377 15.875L48.2127 14.125C48.2502 13.75 48.5252 13.4375 48.9002 13.3625L50.6252 13L49.0127 12.2875C48.6627 12.1375 48.4502 11.775 48.5002 11.4L48.6877 9.63749L47.5002 10.9375C47.2502 11.225 46.8377 11.3125 46.4877 11.15L44.8752 10.425L45.7627 11.95C45.9502 12.275 45.9127 12.7 45.6502 12.975L44.4627 14.2875L46.1877 13.9125H46.3877ZM56.2502 30.4C56.1627 30.4 56.0752 30.3875 55.9752 30.3625C55.6127 30.25 55.3752 29.9125 55.3752 29.525V25.6875L51.7252 24.5125C51.3627 24.4 51.1127 24.0625 51.1127 23.675C51.1127 23.3 51.3627 22.9625 51.7127 22.8375L55.3627 21.65L55.3502 17.8125C55.3502 17.4375 55.5877 17.1 55.9502 16.975C56.3127 16.8625 56.7127 16.9875 56.9252 17.2875L59.1752 20.4L62.8252 19.2C63.1877 19.0875 63.5877 19.2125 63.8002 19.5125C64.0252 19.825 64.0252 20.2375 63.8002 20.5375L61.5377 23.6375L63.8002 26.7375C64.0252 27.05 64.0252 27.4625 63.8002 27.7625C63.5752 28.0625 63.1752 28.2 62.8252 28.075L59.1752 26.8875L56.9252 30C56.7877 30.275 56.5252 30.4 56.2502 30.4ZM54.8377 23.675L56.5127 24.2125C56.8752 24.325 57.1252 24.6625 57.1252 25.05V26.8125L58.1627 25.375C58.3877 25.0625 58.7877 24.9375 59.1377 25.05L60.8127 25.6L59.7752 24.175C59.5502 23.8625 59.5502 23.45 59.7752 23.1375L60.8127 21.7125L59.1377 22.2625C58.7752 22.375 58.3752 22.25 58.1627 21.95L57.1252 20.525V22.2875C57.1252 22.6625 56.8877 23 56.5252 23.125L54.8377 23.675Z" fill="#F79E2A"/>
</g>
<defs>
<clipPath id="clip0_829_878">
<rect width="64" height="64" fill="white"/>
</clipPath>
</defs>
</svg>
