<svg width="64" height="64" viewBox="0 0 64 64" fill="none" xmlns="http://www.w3.org/2000/svg">
<g clip-path="url(#clip0_475_566)">
<path d="M60.2968 41.2092C60.1376 41.7381 60.4373 42.2958 60.9662 42.455C61.495 42.6141 62.0528 42.3145 62.2119 41.7856L60.2968 41.2092ZM61.7343 22.506C61.549 21.9857 60.9771 21.7141 60.4568 21.8994C59.9365 22.0846 59.6649 22.6566 59.8502 23.1769L61.7343 22.506ZM4.14983 23.1769C4.33504 22.6566 4.06341 22.0847 3.54311 21.8994C3.02281 21.7142 2.45087 21.9859 2.26565 22.5062L4.14983 23.1769ZM1.78804 41.7857C1.94719 42.3146 2.50493 42.6143 3.03379 42.4551C3.56265 42.296 3.86235 41.7382 3.70319 41.2094L1.78804 41.7857ZM51.5601 37.7908C51.5601 38.3431 52.0078 38.7908 52.5601 38.7908C53.1124 38.7908 53.5601 38.3431 53.5601 37.7908H51.5601ZM45.4136 31.2228C45.4136 31.7751 45.8613 32.2228 46.4136 32.2228C46.9659 32.2228 47.4136 31.7751 47.4136 31.2228H45.4136ZM22.7802 44.9272H21.7802H22.7802ZM27.5055 39.2219C28.0578 39.2219 28.5055 38.7742 28.5055 38.2219C28.5055 37.6696 28.0578 37.2219 27.5055 37.2219V39.2219ZM17.5864 38.2219H16.5864C16.5864 38.7742 17.0341 39.2219 17.5864 39.2219V38.2219ZM10.4399 37.7908C10.4399 38.3431 10.8876 38.7908 11.4399 38.7908C11.9921 38.7908 12.4399 38.3431 12.4399 37.7908H10.4399ZM47.4136 35.5978C47.4136 35.0455 46.9659 34.5978 46.4136 34.5978C45.8613 34.5978 45.4136 35.0455 45.4136 35.5978H47.4136ZM46.4136 38.2219V39.2219C46.9659 39.2219 47.4136 38.7742 47.4136 38.2219H46.4136ZM36.4945 37.2219C35.9422 37.2219 35.4945 37.6696 35.4945 38.2219C35.4945 38.7742 35.9422 39.2219 36.4945 39.2219V37.2219ZM62.2119 41.7856C63.0623 38.9602 63.5204 35.9682 63.5204 32.8712H61.5204C61.5204 35.7699 61.0917 38.5679 60.2968 41.2092L62.2119 41.7856ZM63.5204 32.8712C63.5204 29.2379 62.8894 25.7499 61.7343 22.506L59.8502 23.1769C60.9301 26.2097 61.5204 29.4711 61.5204 32.8712H63.5204ZM11.7478 56.7708C17.2257 61.321 24.2906 64.0625 32 64.0625V62.0625C24.7726 62.0625 18.1565 59.4941 13.0257 55.2323L11.7478 56.7708ZM32 64.0625C39.7094 64.0625 46.7742 61.321 52.2521 56.7708L50.9741 55.2323C45.8435 59.4941 39.2274 62.0625 32 62.0625V64.0625ZM2.26565 22.5062C1.11088 25.7501 0.479614 29.238 0.479614 32.8713H2.47961C2.47961 29.4713 3.0701 26.21 4.14983 23.1769L2.26565 22.5062ZM0.479614 32.8713C0.479614 35.9682 0.937723 38.9602 1.78804 41.7857L3.70319 41.2094C2.90826 38.5679 2.47961 35.7699 2.47961 32.8713H0.479614ZM38.5 32.2174C38.5 35.8073 35.5898 38.7174 32 38.7174V40.7174C36.6944 40.7174 40.5 36.9118 40.5 32.2174H38.5ZM32 38.7174C28.4101 38.7174 25.5 35.8073 25.5 32.2174H23.5C23.5 36.9118 27.3056 40.7174 32 40.7174V38.7174ZM25.5 32.2174C25.5 28.6276 28.4101 25.7174 32 25.7174V23.7174C27.3056 23.7174 23.5 27.523 23.5 32.2174H25.5ZM32 25.7174C35.5898 25.7174 38.5 28.6276 38.5 32.2174H40.5C40.5 27.523 36.6944 23.7174 32 23.7174V25.7174ZM53.5601 37.7908V25.7989H51.5601V37.7908H53.5601ZM53.5601 25.7989C53.5601 23.5574 51.7261 21.7588 49.4869 21.7588V23.7588C50.6421 23.7588 51.5601 24.6824 51.5601 25.7989H53.5601ZM49.4869 21.7588C47.2476 21.7588 45.4136 23.5574 45.4136 25.7989H47.4136C47.4136 24.6824 48.3316 23.7588 49.4869 23.7588V21.7588ZM45.4136 25.7989V31.2228H47.4136V25.7989H45.4136ZM42.2197 61.6589V44.9272H40.2197V61.6589H42.2197ZM42.2197 44.9272C42.2197 45.0266 42.1802 45.122 42.1099 45.1923L40.6957 43.7781C40.3909 44.0829 40.2197 44.4962 40.2197 44.9272H42.2197ZM42.1099 45.1923C42.0396 45.2626 41.9442 45.3022 41.8447 45.3022V43.3022C41.4138 43.3022 41.0004 43.4734 40.6957 43.7781L42.1099 45.1923ZM41.8447 45.3022H48.5536V43.3022H41.8447V45.3022ZM15.4464 45.3022H22.1552V43.3022H15.4464V45.3022ZM22.1552 45.3022C22.0558 45.3022 21.9604 45.2626 21.8901 45.1923L23.3043 43.7781C22.9995 43.4734 22.5862 43.3022 22.1552 43.3022V45.3022ZM21.8901 45.1923C21.8198 45.122 21.7802 45.0266 21.7802 44.9272H23.7802C23.7802 44.4962 23.609 44.0829 23.3043 43.7781L21.8901 45.1923ZM21.7802 44.9272V61.659H23.7802V44.9272H21.7802ZM27.5055 37.2219H17.5864V39.2219H27.5055V37.2219ZM18.5864 38.2219V25.7989H16.5864V38.2219H18.5864ZM18.5864 25.7989C18.5864 23.5574 16.7524 21.7588 14.5131 21.7588V23.7588C15.6683 23.7588 16.5864 24.6824 16.5864 25.7989H18.5864ZM14.5131 21.7588C12.2738 21.7588 10.4399 23.5574 10.4399 25.7989H12.4399C12.4399 24.6824 13.3579 23.7588 14.5131 23.7588V21.7588ZM10.4399 25.7989V37.7908H12.4399V25.7989H10.4399ZM45.4136 35.5978V38.2219H47.4136V35.5978H45.4136ZM46.4136 37.2219H36.4945V39.2219H46.4136V37.2219ZM52.5601 27.8722H46.4136V29.8722H52.5601V27.8722ZM17.5864 27.8722H11.4399V29.8722H17.5864V27.8722Z" fill="#1C1D1F"/>
<path d="M16.9765 0.9375V6.5075M19.7919 3.7225H14.1611M47.0235 0.9375V6.5075M49.8389 3.7225H44.2081M26.2655 14.2039L26.4251 14.3579C26.5222 14.4511 26.5949 14.5668 26.637 14.6947C26.679 14.8226 26.689 14.9588 26.6661 15.0915L25.786 20.1677C25.6686 20.8449 26.387 21.3611 27.0017 21.0415L31.4232 18.742C31.6014 18.6494 31.7992 18.601 32 18.601C32.2008 18.601 32.3986 18.6494 32.5767 18.742L36.9982 21.0415C37.613 21.3611 38.3314 20.8449 38.214 20.1677L37.3339 15.0915C37.311 14.9588 37.321 14.8226 37.363 14.6947C37.405 14.5668 37.4778 14.4511 37.5749 14.3579L41.3031 10.7629C41.8004 10.2834 41.526 9.44787 40.8387 9.34912L35.6864 8.6085C35.5524 8.58953 35.425 8.53837 35.3152 8.45942C35.2053 8.38046 35.1162 8.27605 35.0555 8.15512L33.1185 4.27262C32.6582 3.35 31.3417 3.35 30.8815 4.27262L28.9445 8.15512C28.8838 8.27606 28.7947 8.38048 28.6848 8.45944C28.575 8.5384 28.4476 8.58955 28.3136 8.6085L23.1612 9.34912C22.474 9.44787 22.1996 10.2834 22.6969 10.7629L23.1156 11.1666M5.15986 57.9379V62.3125C5.15986 62.5114 5.23888 62.7022 5.37953 62.8428C5.52019 62.9835 5.71095 63.0625 5.90986 63.0625H11.6367C11.8357 63.0625 12.0264 62.9835 12.1671 62.8428C12.3077 62.7022 12.3867 62.5114 12.3867 62.3125V44.3021H15.4462C16.179 44.3021 16.566 43.4438 16.0766 42.9041L9.40361 35.5454C9.32385 35.4574 9.22656 35.3871 9.11799 35.339C9.00943 35.2909 8.89199 35.266 8.77324 35.266C8.65449 35.266 8.53705 35.2909 8.42849 35.339C8.31992 35.3871 8.22262 35.4574 8.14286 35.5454L1.46986 42.9041C0.980489 43.4438 1.36749 44.3021 2.10024 44.3021H5.15974V53.5629M8.03611 8.15825L9.84024 11.4215C9.8866 11.5052 9.95596 11.5738 10.0401 11.6193L13.3389 13.404C13.6875 13.5926 13.6875 14.088 13.3389 14.2766L10.0401 16.0614C9.95593 16.1068 9.88656 16.1754 9.84024 16.2591L8.03611 19.5224C7.84536 19.8673 7.34461 19.8673 7.15399 19.5224L5.34986 16.2591C5.3035 16.1755 5.23414 16.1068 5.14999 16.0614L1.85124 14.2766C1.50261 14.088 1.50261 13.5926 1.85124 13.404L5.14999 11.6191C5.23417 11.5737 5.30354 11.5051 5.34986 11.4214L7.15399 8.15812C7.34474 7.81337 7.84549 7.81337 8.03611 8.15825ZM56.846 8.15825L58.6501 11.4215C58.6965 11.5052 58.7658 11.5738 58.85 11.6193L62.1487 13.404C62.4974 13.5926 62.4974 14.088 62.1487 14.2766L58.85 16.0613C58.7658 16.1067 58.6964 16.1753 58.6501 16.259L56.846 19.5222C56.6552 19.8671 56.1545 19.8671 55.9639 19.5222L54.1597 16.259C54.1134 16.1753 54.044 16.1067 53.9599 16.0613L50.6611 14.2765C50.3125 14.0879 50.3125 13.5925 50.6611 13.4039L53.9599 11.6191C54.044 11.5737 54.1134 11.5051 54.1597 11.4214L55.9639 8.15812C56.1545 7.81337 56.6552 7.81337 56.846 8.15825ZM62.53 42.9041L55.857 35.5454C55.7772 35.4574 55.6799 35.3871 55.5714 35.339C55.4628 35.2909 55.3454 35.266 55.2266 35.266C55.1079 35.266 54.9904 35.2909 54.8819 35.339C54.7733 35.3871 54.676 35.4574 54.5962 35.5454L47.9232 42.9041C47.4339 43.4438 47.8209 44.3021 48.5536 44.3021H51.6131V62.3125C51.6131 62.5114 51.6921 62.7022 51.8328 62.8428C51.9734 62.9835 52.1642 63.0625 52.3631 63.0625H58.09C58.2889 63.0625 58.4797 62.9835 58.6203 62.8428C58.761 62.7022 58.84 62.5114 58.84 62.3125V44.3021H61.8995C62.6322 44.3021 63.0194 43.4438 62.53 42.9041Z" stroke="#F79E2A" stroke-width="2" stroke-miterlimit="10" stroke-linecap="round" stroke-linejoin="round"/>
</g>
<defs>
<clipPath id="clip0_475_566">
<rect width="64" height="64" fill="white"/>
</clipPath>
</defs>
</svg>
